<svg xmlns="http://www.w3.org/2000/svg" viewBox="0 0 160 180">

<!-- Drop Shadow -->
<ellipse cx="80" cy="165" rx="50" ry="8" fill="#cbd5e1" opacity="0.6"/>
<!-- Arch Extrusion (Inner) -->
<path d="M 30,160 L 30,80 A 50 50 0 0 1 130,80 L 130,160 L 120,160 L 120,80 A 40 40 0 0 0 40,80 L 40,160 Z" fill="#d4a017" stroke="#1e293b" stroke-width="4" stroke-linejoin="round"/>
<!-- Arch Front -->
<path d="M 20,165 L 20,85 A 50 50 0 0 1 120,85 L 120,165 L 110,165 L 110,85 A 40 40 0 0 0 30,85 L 30,165 Z" fill="#fbbf24" stroke="#1e293b" stroke-width="4" stroke-linejoin="round"/>
<!-- Base Plates -->
<polygon points="10,165 40,165 45,170 15,170" fill="#d4a017" stroke="#1e293b" stroke-width="2" stroke-linejoin="round"/>
<polygon points="100,165 130,165 135,170 105,170" fill="#d4a017" stroke="#1e293b" stroke-width="2" stroke-linejoin="round"/>

</svg>