<svg xmlns="http://www.w3.org/2000/svg" viewBox="0 0 140 140">

<!-- Drop Shadow -->
<ellipse cx="70" cy="125" rx="45" ry="12" fill="#cbd5e1" opacity="0.6"/>
<!-- Plate Extrusion -->
<path d="M 25,115 A 45 12 0 0 0 115,115 L 115,120 A 45 12 0 0 1 25,120 Z" fill="#94a3b8" stroke="#1e293b" stroke-width="3" stroke-linejoin="round"/>
<!-- Plate Surface -->
<ellipse cx="70" cy="115" rx="45" ry="12" fill="#e2e8f0" stroke="#1e293b" stroke-width="3"/>
<!-- Bottom Tier Extrusion -->
<path d="M 35,95 A 35 15 0 0 0 105,95 L 105,110 A 35 15 0 0 1 35,110 Z" fill="#f472b6" stroke="#1e293b" stroke-width="4" stroke-linejoin="round"/>
<polygon points="35,95 105,95 105,110 35,110" fill="#f472b6" stroke="#1e293b" stroke-width="4" stroke-linejoin="round"/>
<!-- Bottom Tier Top -->
<ellipse cx="70" cy="95" rx="35" ry="15" fill="#fbcfe8" stroke="#1e293b" stroke-width="4"/>
<!-- Top Tier Extrusion -->
<path d="M 45,70 A 25 10 0 0 0 95,70 L 95,90 A 25 10 0 0 1 45,90 Z" fill="#60a5fa" stroke="#1e293b" stroke-width="4" stroke-linejoin="round"/>
<polygon points="45,70 95,70 95,90 45,90" fill="#60a5fa" stroke="#1e293b" stroke-width="4" stroke-linejoin="round"/>
<!-- Top Tier Top -->
<ellipse cx="70" cy="70" rx="25" ry="10" fill="#bfdbfe" stroke="#1e293b" stroke-width="4"/>
<!-- Candles -->
<rect x="55" y="45" width="6" height="20" rx="2" fill="#fef08a" stroke="#1e293b" stroke-width="3"/>
<path d="M 52,50 Q 58,55 64,50 M 52,58 Q 58,63 64,58" fill="none" stroke="#eab308" stroke-width="2" stroke-linecap="round"/>
<path d="M 58,42 Q 62,35 58,30 Q 54,35 58,42" fill="#f97316" stroke="#1e293b" stroke-width="2" stroke-linejoin="round"/>
<rect x="75" y="45" width="6" height="20" rx="2" fill="#fef08a" stroke="#1e293b" stroke-width="3"/>
<path d="M 72,50 Q 78,55 84,50 M 72,58 Q 78,63 84,58" fill="none" stroke="#eab308" stroke-width="2" stroke-linecap="round"/>
<path d="M 78,42 Q 82,35 78,30 Q 74,35 78,42" fill="#f97316" stroke="#1e293b" stroke-width="2" stroke-linejoin="round"/>

</svg>