<svg xmlns="http://www.w3.org/2000/svg" viewBox="0 0 120 120">

<!-- 3D Confetti Pieces with Drop Shadows -->
<rect x="25" y="30" width="12" height="6" rx="2" fill="#ef4444" transform="rotate(30 31 33)" stroke="#1e293b" stroke-width="2"/>
<ellipse cx="28" cy="38" rx="6" ry="3" fill="#000" opacity="0.1" transform="rotate(30 28 38)"/>

<rect x="45" y="15" width="12" height="6" rx="2" fill="#3b82f6" transform="rotate(-20 51 18)" stroke="#1e293b" stroke-width="2"/>
<ellipse cx="48" cy="23" rx="6" ry="3" fill="#000" opacity="0.1" transform="rotate(-20 48 23)"/>

<rect x="80" y="25" width="12" height="6" rx="2" fill="#eab308" transform="rotate(45 86 28)" stroke="#1e293b" stroke-width="2"/>
<ellipse cx="83" cy="33" rx="6" ry="3" fill="#000" opacity="0.1" transform="rotate(45 83 33)"/>

<circle cx="35" cy="60" r="5" fill="#a855f7" stroke="#1e293b" stroke-width="2"/>
<circle cx="38" cy="65" r="5" fill="#000" opacity="0.1"/>

<circle cx="65" cy="50" r="5" fill="#ec4899" stroke="#1e293b" stroke-width="2"/>
<circle cx="68" cy="55" r="5" fill="#000" opacity="0.1"/>

<rect x="85" y="65" width="12" height="6" rx="2" fill="#22c55e" transform="rotate(-15 91 68)" stroke="#1e293b" stroke-width="2"/>
<ellipse cx="88" cy="73" rx="6" ry="3" fill="#000" opacity="0.1" transform="rotate(-15 88 73)"/>

<rect x="65" y="80" width="12" height="6" rx="2" fill="#ef4444" transform="rotate(60 71 83)" stroke="#1e293b" stroke-width="2"/>
<ellipse cx="68" cy="88" rx="6" ry="3" fill="#000" opacity="0.1" transform="rotate(60 68 88)"/>

<circle cx="30" cy="95" r="5" fill="#3b82f6" stroke="#1e293b" stroke-width="2"/>
<circle cx="33" cy="100" r="5" fill="#000" opacity="0.1"/>

</svg>