<svg xmlns="http://www.w3.org/2000/svg" viewBox="0 0 120 120">

<!-- Drop Shadow -->
<polygon points="30,105 80,95 100,110 50,120" fill="#cbd5e1" opacity="0.6"/>
<!-- Back Legs -->
<rect x="35" y="60" width="8" height="40" fill="#db2777" stroke="#1e293b" stroke-width="3" stroke-linejoin="round"/>
<rect x="75" y="55" width="8" height="40" fill="#db2777" stroke="#1e293b" stroke-width="3" stroke-linejoin="round"/>
<!-- Seat Base -->
<polygon points="25,65 75,55 95,70 45,80" fill="#f472b6" stroke="#1e293b" stroke-width="4" stroke-linejoin="round"/>
<polygon points="25,65 45,80 45,85 25,70" fill="#db2777" stroke="#1e293b" stroke-width="4" stroke-linejoin="round"/>
<polygon points="45,80 95,70 95,75 45,85" fill="#db2777" stroke="#1e293b" stroke-width="4" stroke-linejoin="round"/>
<!-- Front Legs -->
<rect x="35" y="75" width="8" height="40" fill="#f472b6" stroke="#1e293b" stroke-width="3" stroke-linejoin="round"/>
<rect x="80" y="68" width="8" height="40" fill="#f472b6" stroke="#1e293b" stroke-width="3" stroke-linejoin="round"/>
<!-- Backrest Solid -->
<path d="M 30,60 L 30,20 Q 55,5 80,15 L 80,55 Z" fill="#fbcfe8" stroke="#1e293b" stroke-width="4" stroke-linejoin="round"/>
<circle cx="55" cy="35" r="8" fill="#f472b6" stroke="#1e293b" stroke-width="2"/>

</svg>