<svg xmlns="http://www.w3.org/2000/svg" viewBox="0 0 100 128">
<path d="M 50 90 Q 42 100 50 110 T 46 120" fill="none" stroke="#1e293b" stroke-width="3" stroke-linecap="round"/>
<path d="M 70 20 C 30 20 20 50 20 60 C 20 80 40 85 60 80 C 80 75 80 55 60 50 C 40 45 20 55 20 60" fill="none" stroke="#d4a017" stroke-width="6" stroke-linecap="round" stroke-linejoin="round"/>
<path d="M 70 20 C 30 20 20 50 20 60 C 20 80 40 85 60 80 C 80 75 80 55 60 50 C 40 45 20 55 20 60" fill="none" stroke="#1e293b" stroke-width="4" stroke-linecap="round" stroke-linejoin="round"/>
</svg>