<svg xmlns="http://www.w3.org/2000/svg" viewBox="0 0 160 120">

<!-- Drop Shadow -->
<polygon points="10,105 150,105 140,115 20,115" fill="#cbd5e1" opacity="0.6"/>
<path d="M 10,20 Q 80,40 150,20" fill="none" stroke="#1e293b" stroke-width="4" stroke-linecap="round"/>
<!-- Tassel 1 -->
<path d="M 30,25 L 25,85 M 30,25 L 30,90 M 30,25 L 35,85" stroke="#fbbf24" stroke-width="4" stroke-linecap="round"/>
<ellipse cx="30" cy="28" rx="4" ry="6" fill="#fbbf24" stroke="#1e293b" stroke-width="2"/>
<!-- Tassel 2 -->
<path d="M 60,31 L 55,91 M 60,31 L 60,96 M 60,31 L 65,91" stroke="#34d399" stroke-width="4" stroke-linecap="round"/>
<ellipse cx="60" cy="34" rx="4" ry="6" fill="#34d399" stroke="#1e293b" stroke-width="2"/>
<!-- Tassel 3 -->
<path d="M 90,34 L 85,94 M 90,34 L 90,99 M 90,34 L 95,94" stroke="#f472b6" stroke-width="4" stroke-linecap="round"/>
<ellipse cx="90" cy="37" rx="4" ry="6" fill="#f472b6" stroke="#1e293b" stroke-width="2"/>
<!-- Tassel 4 -->
<path d="M 120,30 L 115,90 M 120,30 L 120,95 M 120,30 L 125,90" stroke="#38bdf8" stroke-width="4" stroke-linecap="round"/>
<ellipse cx="120" cy="33" rx="4" ry="6" fill="#38bdf8" stroke="#1e293b" stroke-width="2"/>

</svg>