<svg xmlns="http://www.w3.org/2000/svg" viewBox="0 0 105 135" width="105px" height="135px">
<path d="M 55 110 C 45 60 15 15 15 15 C 35 45 50 55 50 85 C 50 55 65 45 85 15 C 85 15 55 60 95 110 C 75 130 35 130 55 110 Z" fill="#e0e0e0" stroke="#222222" stroke-width="3" stroke-linejoin="round"/><path d="M 55 110 C 45 60 15 15 15 15 C 35 45 50 55 50 85 C 50 55 65 45 85 15 C 85 15 55 60 95 110 C 75 130 35 130 55 110 Z" fill="none" stroke="#ffffff" stroke-width="2" stroke-dasharray="10, 15" stroke-linejoin="round" opacity="0.6"/>
</svg>