<svg xmlns="http://www.w3.org/2000/svg" viewBox="0 0 140 112" width="140px" height="112px">
<polygon points="70,5 80,30 105,15 92,40 120,40 98,55 120,70 92,72 105,97 80,82 70,107 60,82 35,97 48,72 20,70 42,55 20,40 48,40 35,15 60,30" fill="#e0e0e0" stroke="#222222" stroke-width="3" stroke-linejoin="round"/><polygon points="70,5 80,30 105,15 92,40 120,40 98,55 120,70 92,72 105,97 80,82 70,107 60,82 35,97 48,72 20,70 42,55 20,40 48,40 35,15 60,30" fill="none" stroke="#ffffff" stroke-width="2" stroke-dasharray="10, 15" stroke-linejoin="round" opacity="0.6"/>
</svg>